# xmcd
# 
# Track frame offsets:
#     183
#     13795
#     30515
#     47250
#     66835
#     81120
#     95573
#     113528
#     131870
#     147103
# 
# Disc length: 2197
# 
# Revision: 4
# Processed by: cddbd v1.5.2PL0 Copyright (c) Steve Scherf et al.
# Submitted via: fre:ac v1.0.31
# 
DISCID=7b08930a
DTITLE=Columbia Blues - Champion Jack Dupree Blues From The Gutter
DYEAR=1958
DGENRE=Blues
TTITLE0=Strollin'
TTITLE1=T.B. Blues
TTITLE2=Can't Kick the Habit
TTITLE3=Evil Woman
TTITLE4=Nasty Boogie
TTITLE5=Junker's Blues
TTITLE6=Bad Blood
TTITLE7=Goin' Down Slow
TTITLE8=Frankie and Johnny
TTITLE9=Stack-O-Lee
EXTD=
EXTT0=
EXTT1=
EXTT2=
EXTT3=
EXTT4=
EXTT5=
EXTT6=
EXTT7=
EXTT8=
EXTT9=
PLAYORDER=
